<svg id="icons" enable-background="new 0 0 64 64" height="512" viewBox="0 0 64 64" width="512" xmlns="http://www.w3.org/2000/svg"><g fill="#545c66"><path d="m46 10.498c-.553 0-1-.447-1-1 0-3.859-3.141-7-7-7s-7 3.141-7 7c0 .553-.447 1-1 1s-1-.447-1-1c0-4.963 4.037-9 9-9s9 4.037 9 9c0 .552-.447 1-1 1z"/><path d="m30 14.498c-.553 0-1-.447-1-1v-4c0-.553.447-1 1-1s1 .447 1 1v4c0 .552-.447 1-1 1z"/><path d="m46 14.498c-.553 0-1-.447-1-1v-4c0-.553.447-1 1-1s1 .447 1 1v4c0 .552-.447 1-1 1z"/></g><path d="m60 63.502h-12l6-5z" fill="#e29f33"/><path d="m60 13.502v50l-6-5v-45z" fill="#edab37"/><path d="m54 13.502v45l-6 5v-50z" fill="#f6bb42"/><path d="m48 13.502v50h-44v-50h14 12 4 12zm-6.02 37.01-12-18.009-7.01 10.509-3-4.51-8 12.01h6.01zm-24.99-18c0-1.109-.9-2-2-2s-2 .891-2 2c0 1.101.9 2 2 2s2-.899 2-2z" fill="#ffce54"/><path d="m34 10.498c-.553 0-1-.447-1-1 0-3.859-3.141-7-7-7s-7 3.141-7 7c0 .553-.447 1-1 1s-1-.447-1-1c0-4.963 4.037-9 9-9s9 4.037 9 9c0 .552-.447 1-1 1z" fill="#656d78"/><path d="m18 21.498c-.553 0-1-.447-1-1v-11c0-.553.447-1 1-1s1 .447 1 1v11c0 .552-.447 1-1 1z" fill="#656d78"/><path d="m34 21.498c-.553 0-1-.447-1-1v-11c0-.553.447-1 1-1s1 .447 1 1v11c0 .552-.447 1-1 1z" fill="#656d78"/><path d="m41.981 49.506h-23.331l3.775-5.674c.165.109.356.174.553.174.19 0 .383-.055.554-.168.46-.307.584-.926.277-1.387l-3.002-4.504c-.154-.232-.39-.377-.644-.426-.063-.012-.126 0-.189 0s-.127-.012-.19 0c-.254.049-.488.193-.643.426l-8 12.004c-.018.025-.02.057-.034.082-.032.061-.057.121-.076.188-.02.064-.034.129-.04.197-.003.029-.018.057-.018.088 0 .033.016.061.019.092.007.07.02.135.041.201.019.061.041.117.07.172s.063.105.104.154c.045.055.091.102.146.146.024.02.039.047.066.066.034.021.071.031.107.051.034.016.065.033.103.047.112.043.228.07.344.07h.001 30.008c.553 0 1-.447 1-1s-.448-.999-1.001-.999z" fill="#545c66"/><path d="m42.748 51.125c.039-.049.074-.098.104-.154.029-.055.052-.111.07-.172.021-.066.034-.131.041-.201.003-.031.019-.059.019-.092 0-.031-.015-.059-.018-.088-.006-.068-.02-.131-.04-.197s-.044-.127-.076-.188c-.015-.027-.017-.057-.034-.082l-12-18.004c-.154-.232-.39-.377-.643-.426-.063-.014-.127-.002-.19-.002-.064 0-.127-.012-.19.002-.254.049-.488.193-.643.426l-12 18.004c-.018.025-.02.057-.034.082-.032.061-.057.121-.076.188-.02.064-.034.129-.04.197-.003.029-.018.057-.018.088 0 .033.016.061.019.092.007.07.02.135.041.201.019.061.041.117.07.172s.063.105.104.154c.045.055.091.102.146.146.024.02.039.047.066.066.034.021.071.031.107.051.034.016.065.033.103.047.112.043.228.07.344.07h.001 24.002.001c.116 0 .231-.027.344-.07.037-.014.068-.031.103-.049.036-.018.073-.027.107-.049.027-.02.042-.047.066-.066.053-.044.099-.091.144-.146z" fill="#656d78"/><path d="m14.99 30.012c1.375 0 2.5 1.113 2.5 2.5 0 1.376-1.125 2.5-2.5 2.5s-2.5-1.123-2.5-2.5c0-1.387 1.125-2.5 2.5-2.5z" fill="#ed5565"/></svg>